<svg id="Capa_1" enable-background="new 0 0 510 510" height="512" viewBox="0 0 510 510" width="512" xmlns="http://www.w3.org/2000/svg" xmlns:xlink="http://www.w3.org/1999/xlink"><linearGradient id="lg1"><stop offset="0" stop-color="#fd4755"/><stop offset="1" stop-color="#a72b2b"/></linearGradient><linearGradient id="SVGID_1_" gradientTransform="matrix(.707 .707 -.707 .707 -53.836 660.94)" gradientUnits="userSpaceOnUse" x1="-118.169" x2="2.573" xlink:href="#lg1" y1="-604.543" y2="-394.218"/><linearGradient id="lg2"><stop offset="0" stop-color="#a72b2b" stop-opacity="0"/><stop offset="1" stop-color="#42210b"/></linearGradient><linearGradient id="SVGID_2_" gradientTransform="matrix(.707 .707 -.707 .707 -53.836 660.94)" gradientUnits="userSpaceOnUse" x1="-169.144" x2="13.917" xlink:href="#lg2" y1="-488.963" y2="-291.881"/><linearGradient id="SVGID_3_" gradientTransform="matrix(.707 .707 -.707 .707 -53.836 660.94)" gradientUnits="userSpaceOnUse" x1="-118.883" x2="9.058" xlink:href="#lg1" y1="-725.979" y2="-522.676"/><linearGradient id="SVGID_4_" gradientTransform="matrix(.707 .707 -.707 .707 -53.836 660.94)" gradientUnits="userSpaceOnUse" x1="-68.663" x2="-68.663" xlink:href="#lg2" y1="-600.715" y2="-487.763"/><linearGradient id="SVGID_5_" gradientTransform="matrix(.707 .707 -.707 .707 -53.836 660.94)" gradientUnits="userSpaceOnUse" x1="-211.71" x2="-92.526" xlink:href="#lg1" y1="-584.303" y2="-464.34"/><linearGradient id="SVGID_6_" gradientTransform="matrix(.707 .707 -.707 .707 -53.836 660.94)" gradientUnits="userSpaceOnUse" x1="-85.031" x2="-85.031" xlink:href="#lg2" y1="-451.151" y2="-361.477"/><linearGradient id="SVGID_7_" gradientTransform="matrix(.707 .707 -.707 .707 -53.836 660.94)" gradientUnits="userSpaceOnUse" x1="-189.671" x2="-173.897" y1="-552.531" y2="-471.907"><stop offset="0" stop-color="#a72b2b" stop-opacity="0"/><stop offset=".2574" stop-color="#922924" stop-opacity=".257"/><stop offset=".7896" stop-color="#5a2313" stop-opacity=".79"/><stop offset="1" stop-color="#42210b"/></linearGradient><linearGradient id="SVGID_8_" gradientTransform="matrix(.707 .707 -.707 .707 -53.836 660.94)" gradientUnits="userSpaceOnUse" x1="-93.688" x2="-42.275" y1="-297.54" y2="-212.631"><stop offset="0" stop-color="#ffeee6"/><stop offset="1" stop-color="#ffb09e"/></linearGradient><linearGradient id="SVGID_9_" gradientUnits="userSpaceOnUse" x1="70.5" x2="96.251" y1="439.5" y2="413.749"><stop offset="0" stop-color="#ffb09e" stop-opacity="0"/><stop offset="1" stop-color="#ec806b"/></linearGradient><linearGradient id="SVGID_10_" gradientTransform="matrix(.707 .707 -.707 .707 -53.836 660.94)" gradientUnits="userSpaceOnUse" x1="-98.413" x2="-27.051" y1="-378.336" y2="-254.028"><stop offset="0" stop-color="#eaf6ff"/><stop offset="1" stop-color="#b3dafe"/></linearGradient><linearGradient id="lg3"><stop offset="0" stop-color="#d8ecfe" stop-opacity="0"/><stop offset="1" stop-color="#678d98"/></linearGradient><linearGradient id="SVGID_11_" gradientTransform="matrix(.707 .707 -.707 .707 -53.836 660.94)" gradientUnits="userSpaceOnUse" x1="-75.09" x2="-20.377" xlink:href="#lg3" y1="-326.514" y2="-326.514"/><linearGradient id="SVGID_12_" gradientTransform="matrix(.707 .707 -.707 .707 -53.836 660.94)" gradientUnits="userSpaceOnUse" x1="-68.663" x2="-68.663" xlink:href="#lg3" y1="-321.645" y2="-255.501"/><linearGradient id="SVGID_13_" gradientUnits="userSpaceOnUse" x1="154.139" x2="202.102" y1="407.159" y2="455.121"><stop offset="0" stop-color="#b3dafe"/><stop offset="1" stop-color="#7bacdf"/></linearGradient><linearGradient id="SVGID_14_" gradientUnits="userSpaceOnUse" x1="396.741" x2="354.232" xlink:href="#lg2" y1="357.26" y2="314.751"/><linearGradient id="lg4"><stop offset="0" stop-color="#feaee1"/><stop offset="1" stop-color="#fe5694"/></linearGradient><linearGradient id="SVGID_15_" gradientUnits="userSpaceOnUse" x1="311.377" x2="453.68" xlink:href="#lg4" y1="331.145" y2="473.447"/><linearGradient id="lg5"><stop offset="0" stop-color="#fd3581" stop-opacity="0"/><stop offset="1" stop-color="#d2024e"/></linearGradient><linearGradient id="SVGID_16_" gradientTransform="matrix(-1 0 0 1 -2624.902 0)" gradientUnits="userSpaceOnUse" x1="-2980.359" x2="-3002.531" xlink:href="#lg5" y1="436.734" y2="414.562"/><linearGradient id="SVGID_17_" gradientUnits="userSpaceOnUse" x1="342.06" x2="364.081" xlink:href="#lg5" y1="452.155" y2="474.177"/><linearGradient id="SVGID_18_" gradientTransform="matrix(-1 0 0 1 -2624.902 0)" gradientUnits="userSpaceOnUse" x1="-3034.635" x2="-3015.179" xlink:href="#lg5" y1="382.459" y2="401.914"/><linearGradient id="SVGID_19_" gradientUnits="userSpaceOnUse" x1="429.009" x2="456.229" xlink:href="#lg5" y1="356.497" y2="383.717"/><linearGradient id="SVGID_20_" gradientUnits="userSpaceOnUse" x1="417.303" x2="419.934" y1="415.555" y2="418.186"><stop offset="0" stop-color="#972437" stop-opacity="0"/><stop offset="1" stop-color="#42210b"/></linearGradient><linearGradient id="SVGID_21_" gradientUnits="userSpaceOnUse" x1="438.506" x2="455.924" xlink:href="#lg5" y1="465.194" y2="482.613"/><linearGradient id="SVGID_22_" gradientUnits="userSpaceOnUse" x1="382.752" x2="382.752" xlink:href="#lg5" y1="359.054" y2="312.07"/><linearGradient id="SVGID_23_" gradientUnits="userSpaceOnUse" x1="360.84" x2="387.433" xlink:href="#lg4" y1="276.696" y2="348.079"/><g><g><g><path d="m221.772 61.441c-21.219 21.219-55.621 21.219-76.84 0l-1.619-1.619-5.998 5.998c-27.801 27.8-43.42 65.505-43.423 104.821v3.04c-.001 13.406-1.741 26.724-4.619 39.817-6.228 28.337 1.669 59.152 23.707 81.189l102.334 102.334c34.367 34.367 90.087 34.367 124.453 0l108.793-108.793z" fill="url(#SVGID_1_)"/><path d="m214.552 308.577c54.576-54.576 54.576-143.062 0-197.638l-33.641-33.642c-13.081-.585-25.991-5.867-35.979-15.856l-1.619-1.619-5.998 5.998c-27.8 27.8-43.42 65.505-43.423 104.821v3.04c-.001 13.406-1.741 26.724-4.619 39.817-6.228 28.337 1.669 59.152 23.707 81.189l13.889 13.89c24.212 24.213 63.47 24.213 87.683 0z" fill="url(#SVGID_2_)"/><path d="m304.397 277.602-71.999-71.999c-50.39-50.39-50.39-132.088 0-182.478 30.833-30.833 80.824-30.833 111.657 0l142.82 142.82c30.833 30.833 30.833 80.824 0 111.657-50.39 50.39-132.088 50.39-182.478 0z" fill="url(#SVGID_3_)"/><path d="m226.728 29.18c-44.634 50.68-42.75 128.003 5.67 176.423l71.999 71.999c48.42 48.42 125.742 50.304 176.423 5.67z" fill="url(#SVGID_4_)"/><path d="m201.098 192.259-57.786-57.786c-20.616-20.616-20.616-54.041 0-74.657 20.616-20.616 54.041-20.616 74.656 0l57.786 57.786c20.616 20.616 20.616 54.041 0 74.656-20.615 20.617-54.04 20.617-74.656.001z" fill="url(#SVGID_5_)"/><path d="m97.156 139.764c-2.147 10.076-3.264 20.418-3.265 30.878v3.04c-.001 13.406-1.741 26.724-4.619 39.817-6.228 28.337 1.669 59.152 23.707 81.189l102.334 102.334c34.367 34.367 90.087 34.367 124.453 0l7.324-7.324z" fill="url(#SVGID_6_)"/><path d="m143.312 59.816c-20.616 20.616-20.616 54.041 0 74.657l57.786 57.786c20.616 20.616 54.041 20.616 74.656 0 3.791-3.791 6.879-8.017 9.275-12.515l-129.202-129.203c-4.498 2.397-8.724 5.485-12.515 9.275z" fill="url(#SVGID_7_)"/></g><path d="m100.588 505.256-95.844-95.844c-6.325-6.325-6.325-16.579 0-22.904l29.323-29.323c6.325-6.325 16.579-6.325 22.904 0l95.844 95.844c6.325 6.325 6.325 16.579 0 22.904l-29.323 29.323c-6.325 6.325-16.579 6.325-22.904 0z" fill="url(#SVGID_8_)"/><path d="m100.588 505.256-95.844-95.844c-6.325-6.325-6.325-16.579 0-22.904l29.323-29.323c6.325-6.325 16.579-6.325 22.904 0l95.844 95.844c6.325 6.325 6.325 16.579 0 22.904l-29.323 29.323c-6.325 6.325-16.579 6.325-22.904 0z" fill="url(#SVGID_9_)"/><g><path d="m159.818 489.952-139.77-139.77c-9.362-9.362-9.362-24.54 0-33.902l43.212-43.212c9.362-9.362 24.54-9.362 33.902 0l139.77 139.77c9.362 9.362 9.362 24.54 0 33.902l-43.212 43.212c-9.362 9.362-24.54 9.362-33.902 0z" fill="url(#SVGID_10_)"/><path d="m236.932 412.838-92.193-92.193-77.114 77.114 92.193 92.193c9.362 9.362 24.54 9.362 33.902 0l43.212-43.212c9.362-9.362 9.362-24.541 0-33.902z" fill="url(#SVGID_11_)"/><path d="m48.126 288.202-28.078 28.078c-9.362 9.362-9.362 24.54 0 33.902l139.77 139.77c9.362 9.362 24.54 9.362 33.902 0l28.078-28.078z" fill="url(#SVGID_12_)"/><path d="m156.412 493.357-32.824-32.824c-9.362-9.362-9.362-24.54 0-33.902l50.023-50.023c9.362-9.362 24.54-9.362 33.902 0l32.824 32.824c9.362 9.362 9.362 24.54 0 33.902l-50.023 50.023c-9.361 9.362-24.54 9.362-33.902 0z" fill="url(#SVGID_13_)"/></g></g><path d="m382.752 302.047c-28.368 0-51.365 18.435-51.365 41.175 0 15.429 10.592 28.867 26.259 35.919l63.374-63.374c-9.404-8.419-23.062-13.72-38.268-13.72z" fill="url(#SVGID_14_)"/><g><path d="m461.581 459.828-50.393-50.388 26.001-25.996c13.385-13.39 20.804-30.531 22.25-48.069.002-.024.004-.048.006-.072.192-2.385-38.303-46.54-76.693-46.543-38.495-.003-76.886 44.151-76.694 46.543.002.024.004.048.006.072 1.446 17.538 8.865 34.679 22.25 48.069l26.001 25.996-50.393 50.388c-3.49 3.495-2.235 9.499 2.417 11.16 3.434 1.227 6.658 3.219 9.406 5.967 2.585 2.585 4.498 5.585 5.734 8.785 1.768 4.553 7.712 5.701 11.165 2.244l50.108-50.108 50.108 50.108c3.452 3.457 9.396 2.309 11.165-2.244 1.236-3.201 3.149-6.201 5.734-8.785 2.748-2.748 5.972-4.74 9.406-5.967 4.651-1.661 5.906-7.666 2.416-11.16zm-78.829-78.825-25.997-26.001c-6.947-6.942-10.773-16.176-10.773-25.997 0-3.611.518-7.143 1.521-10.507 1.712-5.795 4.861-11.099 9.252-15.49 6.942-6.947 16.176-10.773 25.997-10.773s19.054 3.826 25.996 10.773c4.39 4.39 7.54 9.695 9.252 15.49 1.003 3.364 1.521 6.896 1.521 10.507 0 9.821-3.826 19.054-10.773 25.997z" fill="url(#SVGID_15_)"/><g><path d="m321.48 485.739c-1.24-3.2-3.15-6.2-5.733-8.783-2.751-2.75-5.974-4.739-9.408-5.967-4.65-1.662-5.906-7.667-2.415-11.159l50.389-50.389 28.438 28.438-50.107 50.107c-3.455 3.455-9.399 2.309-11.164-2.247z" fill="url(#SVGID_16_)"/><path d="m307.365 471.386c3.049 1.242 5.908 3.097 8.38 5.569 2.585 2.585 4.498 5.585 5.734 8.785 1.768 4.553 7.712 5.701 11.165 2.244l50.108-50.108-20.939-20.934z" fill="url(#SVGID_17_)"/><g><g><path d="m411.189 409.441-28.438-28.439 25.749-25.748 28.438 28.438z" fill="url(#SVGID_18_)"/></g><path d="m416.25 362.504-.252.247-25.749 25.749 20.939 20.939 26.001-25.996c13.385-13.39 20.804-30.531 22.25-48.069.002-.024.004-.048.006-.072.384-4.777-.441-9.586-2.37-13.973-3.931-8.941-9.626-17.313-17.082-24.604-.801-.783-1.619-1.541-2.445-2.285 4.28 23.966-2.817 49.583-21.298 68.064z" fill="url(#SVGID_19_)"/><path d="m411.574 409.825 7.247 7.248h.001z" fill="url(#SVGID_20_)"/></g></g><path d="m459.165 470.989c4.649-1.662 5.906-7.667 2.415-11.159l-18.03-18.03-28.438 28.438 17.748 17.748c3.455 3.455 9.399 2.309 11.164-2.247 1.24-3.2 3.151-6.2 5.733-8.783 2.75-2.751 5.973-4.74 9.408-5.967z" fill="url(#SVGID_21_)"/><path d="m382.752 288.759c-38.495-.003-76.886 44.151-76.694 46.543.002.024.004.048.006.072 1.365 16.547 8.048 32.739 20.041 45.763h113.293c11.993-13.024 18.677-29.216 20.041-45.763.002-.024.004-.048.006-.072.192-2.385-38.302-46.54-76.693-46.543zm25.996 66.243-25.996 26.001-25.997-26.001c-6.947-6.942-10.773-16.176-10.773-25.997 0-3.611.518-7.143 1.521-10.507 1.712-5.795 4.861-11.099 9.252-15.49 6.942-6.947 16.176-10.773 25.997-10.773s19.054 3.826 25.996 10.773c4.39 4.39 7.54 9.695 9.252 15.49 1.003 3.364 1.521 6.896 1.521 10.507 0 9.822-3.826 19.055-10.773 25.997z" fill="url(#SVGID_22_)"/><path d="m439.993 296.725c-31.562-30.848-82.921-30.848-114.483 0-2.721 2.661-6.046 6.467-9.172 10.229-6.636 7.983-10.277 18.035-10.274 28.416v.005c.919 11.118 4.232 22.077 9.952 32.02-9.83-17.192-1.204-39.191 17.678-45.242 4.395-1.409 9.009-2.631 13.81-3.653 10.931-2.333 22.819-3.611 35.248-3.611s24.317 1.278 35.248 3.611c4.801 1.022 9.415 2.244 13.81 3.653 18.881 6.051 27.508 28.049 17.678 45.242 5.72-9.942 9.033-20.902 9.952-32.02 0 0 0-.002 0-.005.003-10.381-3.638-20.432-10.274-28.416-3.126-3.762-6.452-7.568-9.173-10.229z" fill="url(#SVGID_23_)"/></g></g></svg>